<svg xmlns="http://www.w3.org/2000/svg" width="20.494" height="19.138" viewBox="0 0 20.494 19.138">
  <g id="search_icon" data-name="search icon" transform="matrix(-0.978, -0.208, 0.208, -0.978, 19.373, 18.661)">
    <g id="Path_1" data-name="Path 1" transform="translate(5.153 0.17)" fill="none">
      <path d="M7.31,14.691a7.429,7.429,0,0,0,7.379-7.379A7.262,7.262,0,0,0,7.379,0,7.429,7.429,0,0,0,0,7.38,7.262,7.262,0,0,0,7.31,14.691Z" stroke="none"/>
      <path d="M 7.275175094604492 13.69068145751953 L 7.275092601776123 13.69068145751953 L 7.305315017700195 13.69061183929443 C 10.80890464782715 13.67431163787842 13.6727352142334 10.810471534729 13.68926525115967 7.30662202835083 C 13.69722461700439 5.619112014770508 13.04953479766846 4.03460168838501 11.86548519134521 2.844961881637573 C 10.68155479431152 1.655421853065491 9.100714683532715 1.000321865081787 7.414165019989014 1.000321865081787 L 7.383924961090088 1.000391840934753 C 3.880325078964233 1.016691923141479 1.016494989395142 3.880541801452637 0.9999650120735168 7.384391784667969 C 0.9920049905776978 9.071681976318359 1.639585018157959 10.65603160858154 2.823415040969849 11.84557151794434 C 4.007364749908447 13.03524208068848 5.588365077972412 13.69051170349121 7.275175094604492 13.69068145751953 M 7.275070190429688 14.69068336486816 C 3.235213041305542 14.69028663635254 -0.01910894364118576 11.42437744140625 -2.501739436411299e-05 7.379672050476074 C 0.01911498233675957 3.323081970214844 3.32294487953186 0.01927189901471138 7.379274845123291 0.0004018997133243829 C 7.391158580780029 0.0003466165217105299 7.402299404144287 0.0003207278496120125 7.414169788360596 0.0003207278496120125 C 11.45401668548584 0.0003207278496120125 14.70833873748779 3.266636371612549 14.68925476074219 7.311341762542725 C 14.67011451721191 11.36792182922363 11.36629486083984 14.67173194885254 7.309965133666992 14.69060230255127 C 7.298081398010254 14.69065761566162 7.286940574645996 14.69068431854248 7.275070190429688 14.69068336486816 Z" stroke="none" fill="#232323"/>
    </g>
    <line id="Line_4" data-name="Line 4" x1="6.82" y1="3.81" transform="translate(0 0)" fill="none" stroke="#232323" stroke-width="1"/>
  </g>
</svg>
